<?xml version="1.0" encoding="utf-8"?>
<!-- Generator: Adobe Illustrator 27.5.0, SVG Export Plug-In . SVG Version: 6.00 Build 0)  -->
<svg version="1.1" xmlns="http://www.w3.org/2000/svg" xmlns:xlink="http://www.w3.org/1999/xlink" x="0px" y="0px"
	 viewBox="0 0 2200 2200" style="enable-background:new 0 0 2200 2200;" xml:space="preserve">
<g id="Objects">
	<g>
		<path style="fill:#BF8E4F;" d="M1594.599,1611.669c-18.088-16.365-40.856-24.706-63.806-31.9
			c-15.85-4.969-31.892-9.312-47.929-13.631c-4.932-1.328-7.866-1.06-11.558,3.024c-4.011,4.437-6.224,12.222-6.893,17.929
			c-0.891,7.592-0.908,15.795,1.512,23.117c1.419,4.292,4.015,12.454,8.964,13.787c30.159,8.123,62.11,15.35,89.906,30.082
			c4.783,2.535,9.424,5.37,13.724,8.667c0.069,0.053,0.137,0.11,0.205,0.167c-0.089-0.107-0.169-0.202-0.267-0.321
			c0.137,0.167,0.296,0.324,0.454,0.481c0.155,0.137,0.304,0.278,0.445,0.419c0.405,0.36,0.826,0.709,1.23,1.061
			c-2.985,2.142-6.061,4.127-9.299,5.896c-8.678,4.741-17.994,8.048-27.483,10.738c-25.049,6.403-50.951,8.686-76.673,10.537
			c-28.671,2.063-57.37,3.787-86.074,5.317c-57.982,3.091-116.017,5.2-174.07,6.351c-116.655,2.313-233.389,0.748-349.942-4.661
			c-32.27-1.497-64.536-3.223-96.768-5.391c-30.267-2.036-60.7-4.775-90.159-12.327c-13.607-3.819-26.928-8.791-39.157-15.946
			c-2.805-1.641-5.548-3.392-8.191-5.283c-1.223-0.875-2.394-1.812-3.59-2.719c-0.474-0.431-0.955-0.855-1.419-1.296
			c-0.004-0.004-0.008-0.008-0.013-0.012c0.048-0.046,0.094-0.093,0.142-0.138c0.294-0.279,1.467-1.275,1.939-1.696
			c0.859-0.653,1.956-1.491,2.223-1.687c4.888-3.572,10.11-6.671,15.478-9.461c13.92-7.232,28.83-12.425,43.927-16.602
			c22.724-5.862,46.099-9.353,69.273-12.889c23.702-3.616,47.483-6.709,71.313-9.352c49.314-5.469,98.836-9.019,148.409-11.026
			c96.259-3.897,192.826-2.173,288.881,5.227c47.633,3.669,95.172,8.778,142.418,15.893c4.63,0.697,8.974-5.645,10.607-8.787
			c3.156-6.072,4.544-14.474,4.393-21.213c-0.226-10.104-2.34-28.094-15-30c-60.624-9.13-121.729-15.003-182.918-18.661
			c-68.641-4.104-137.464-5.364-206.209-3.792c-70.268,1.606-140.519,6.159-210.301,14.652c-33.57,4.086-67.13,8.922-100.348,15.306
			c-30.892,5.938-65.298,14.949-90.48,34.803c-12.579,9.917-22.092,21.814-26.482,37.501c-6.176,22.066-2.811,46.37,10.253,65.22
			c8.522,12.296,22.154,21.405,35.365,27.998c16.494,8.231,34.502,13.248,52.485,17.011c37.183,7.78,75.492,9.313,113.314,11.504
			c40.073,2.321,80.172,4.185,120.288,5.594c79.518,2.791,159.099,3.794,238.663,2.998c79.542-0.796,159.066-3.388,238.489-7.819
			c38.451-2.145,77.276-3.587,115.477-8.662c32.367-4.3,72.012-11.624,93.891-38.475
			C1626.327,1680.865,1621.338,1635.862,1594.599,1611.669z M610.905,1663.957c0.015-0.028,0.03-0.057,0.045-0.086
			C610.786,1664.589,610.797,1664.442,610.905,1663.957z M611.938,1662.35C610.66,1665.005,611.089,1663.78,611.938,1662.35
			L611.938,1662.35z"/>
		<path style="fill:#BF8E4F;" d="M1578.912,1663.071c-0.062-0.055-0.124-0.107-0.187-0.16c2.295,2.764,1.774,1.726,0.632,0.579
			C1579.203,1663.353,1579.056,1663.213,1578.912,1663.071z"/>
		<path style="fill:#BF8E4F;" d="M1817.373,933.106c-95.019,85.141-205.707,174.062-338.903,180.212
			c-31.985,1.477-64.665-1.834-95.13-11.973c-27.861-9.272-53.752-23.621-77.069-41.399c-46.972-35.812-82.712-85.42-109.82-135.81
			c-9.164-17.034-17.572-34.469-25.402-52.154c-3.761-8.495-7.387-17.05-10.901-25.65c-1.846-4.519-3.661-9.05-5.448-13.593
			c-0.533-1.355-1.063-2.712-1.59-4.07c-0.219-0.586-1.646-4.322-1.825-4.793c-13.919-36.777-26.197-74.145-38.333-111.539
			c-1.851-5.704-5.489-14.858-12.952-14.858s-11.101,9.154-12.952,14.858c-21.516,66.291-41.28,126.802-71.48,188.39
			c-26.941,54.942-59.542,104.788-106.193,146.362c-44.918,40.029-102.001,64.044-162.708,66.346
			c-65.318,2.477-128.569-17.124-185.681-47.724c-65.597-35.146-123.175-83.157-178.36-132.605
			c-8.55-7.661-15.711-1.694-19.35,7.727c-4.354,11.272-5.363,28.642,1.173,39.391c42.361,69.664,79.524,142.439,110.552,217.849
			c3.637,8.839,7.187,17.714,10.661,26.619c1.86,4.767,0.86,2.225,0.456,1.174c0.926,2.411,1.844,4.824,2.757,7.239
			c1.818,4.811,3.611,9.631,5.381,14.459c6.551,17.876,12.764,35.875,18.642,53.983c11.298,34.806,21.35,70.014,30.174,105.528
			c2.326,9.361,4.566,18.743,6.723,28.144c1.16,5.056,2.295,10.118,3.406,15.184c0.426,1.942,0.849,3.885,1.268,5.829
			c0.242,1.124,0.482,2.248,0.722,3.373c0.065,0.309,0.141,0.672,0.23,1.099c3.939,19.209,7.625,38.461,10.954,57.786
			c1.341,7.785,6.68,26.955,18.452,20.953c11.047-5.633,12.224-26.76,10.477-36.904c-26.237-152.286-72.62-300.621-140.807-439.424
			c-1.266-2.577-2.563-5.138-3.843-7.708c80.119,62.622,170.023,114.131,273.393,118.017
			c64.838,2.438,128.109-17.263,179.446-56.995c51.45-39.819,90.626-92.904,121.27-149.866
			c31.504-58.561,54.301-121.314,75.241-184.394c18.476,55.587,38.396,110.835,64.379,163.349
			c28.315,57.228,64.541,112.48,112.807,154.891c23.156,20.347,48.456,38.12,76.767,50.554
			c30.443,13.37,63.684,20.818,96.867,22.366c68.399,3.19,136.355-17.716,196.163-49.761c36.252-19.424,70.094-42.78,102.461-68.119
			c-51.315,103.123-91.38,211.77-119.009,323.693c-7.984,32.341-14.99,64.935-21.112,97.686
			c-10.649-3.463-21.435-6.557-32.186-9.587c-43.369-12.226-87.353-22.202-131.658-30.381
			c-65.926-12.17-132.572-20.414-199.437-25.168c-86.338-6.139-173.092-6.393-259.476-0.987
			c-102.61,6.421-204.703,20.867-305.095,43.022c-13.459,2.97-26.885,6.087-40.283,9.323c-12.217,2.951-15.245,19.043-15,30
			c0.161,7.192,1.039,14.734,4.393,21.213c1.735,3.351,5.973,9.906,10.607,8.787c101.854-24.599,205.55-41.393,310.002-49.812
			c87.75-7.073,175.982-8.303,263.887-3.492c69.652,3.812,139.127,11.388,207.896,23.119c26.248,4.478,52.393,9.565,78.386,15.339
			c10.872,2.415,21.717,4.95,32.529,7.618c4.735,1.168,9.464,2.362,14.185,3.583c2.139,0.553,4.277,1.112,6.414,1.676
			c1.034,0.273,2.066,0.552,3.1,0.823c0.026,0.007,0.038,0.01,0.062,0.016c0.087,0.024,0.154,0.042,0.254,0.069
			c19.042,5.196,37.788,11.083,56.542,17.195c0.243,0.079,0.483,0.173,0.723,0.261c12.258,4.503,16.939-12.173,18.452-20.953
			c3.06-17.763,6.377-35.48,9.995-53.138c0.318-1.55,0.64-3.098,0.959-4.648c0.097-0.469,0.176-0.856,0.243-1.181
			c0.061-0.28,0.128-0.589,0.209-0.961c0.842-3.887,1.678-7.775,2.539-11.659c2.079-9.38,4.24-18.743,6.487-28.084
			c8.425-35.027,18.03-69.771,28.845-104.136c5.56-17.666,11.441-35.232,17.636-52.686c3.144-8.857,6.371-17.684,9.678-26.481
			c0.908-2.415,1.829-4.825,2.742-7.237c0.085-0.223,0.545-1.425,0.787-2.057c1.918-4.956,3.872-9.897,5.848-14.83
			c14.7-36.706,30.832-72.838,48.328-108.296c20.698-41.946,43.33-82.909,67.63-122.873c6.558-10.785,5.513-28.156,1.173-39.391
			C1833.147,931.576,1826.104,925.282,1817.373,933.106z"/>
		<path style="fill:#BF8E4F;" d="M1032.131,611.471c13.945,15.983,33.553,25.269,54.5,27.616
			c22.564,2.527,47.212-3.883,65.578-17.262c22.042-16.057,36.625-40.178,39.893-67.333c0.099-0.674,0.174-1.318,0.218-1.915
			c0.329-3.281,0.495-6.622,0.42-9.955c0.26-24.993-5.71-48.712-19.694-70.074c-8.437-12.889-20.483-24.766-35.086-30.34
			c-24.84-9.482-53.776-8.8-78.056,2.113c-36.888,16.581-54.747,59.308-52.834,98
			C1008.297,567.152,1015.495,592.403,1032.131,611.471z M1042.164,553.035c0.032-0.02,0.322,0.441,0.636,0.961
			C1042.383,553.437,1042.124,553.06,1042.164,553.035z M1163.244,538.796c-0.012,0.046-0.024,0.092-0.036,0.138
			c0.007-0.084,0.015-0.166,0.022-0.253c0.006,0.022,0.011,0.041,0.017,0.062C1163.246,538.76,1163.245,538.778,1163.244,538.796z
			 M1053.512,510.579c-0.019,0.037-0.049,0.081-0.087,0.128C1053.459,510.662,1053.492,510.618,1053.512,510.579z M1052.432,511.517
			c0.216-0.162,0.438-0.309,0.656-0.469C1052.284,511.774,1050.819,512.726,1052.432,511.517z M1038.528,530.821
			c0.195-0.457,0.386-0.915,0.593-1.364c1.079-2.353,2.338-4.583,3.582-6.847c0.665-0.917,1.319-1.839,2.016-2.733
			c1.5-1.923,3.104-3.765,4.804-5.514c0.769-0.791,1.558-1.564,2.365-2.317c0.268-0.25,0.836-0.658,1.233-1.02
			c7.847-5.764,16.298-10.016,25.609-12.784c15.093-3.565,31.047-3.567,46.123,0.093c3.908,1.174,7.739,2.616,11.359,4.51
			c2.272,1.189,4.416,2.574,6.479,4.096c0.023,0.017,0.84,0.663,1.471,1.153c0.61,0.55,1.556,1.383,1.578,1.404
			c1.595,1.518,3.119,3.11,4.575,4.761c1.472,1.668,2.874,3.396,4.202,5.181c0.525,0.705,1.026,1.427,1.534,2.143
			c1.057,1.983,2.236,3.889,3.236,5.907c0.443,0.895,0.872,1.798,1.284,2.708c0.133,0.292,0.41,0.966,0.662,1.578
			c0.394,1.171,0.765,2.35,1.103,3.539c0.143,0.502,0.269,1.008,0.4,1.512c0.031,0.205,0.056,0.411,0.09,0.616
			c-0.067,0.883-0.108,1.925-0.119,2.793c-0.217,0.957-0.324,1.391-0.002,0.283c0,0.095,0,0.186,0,0.275
			c-0.032,0.108-0.055,0.218-0.088,0.326c-0.103,0.335-0.226,0.664-0.335,0.997c-0.647,1.28-1.218,2.596-1.894,3.865
			c-0.468,0.877-0.954,1.743-1.461,2.598c-1.234,2.01-1.024,1.708,0.629-0.907c-0.148,1.075-2.031,2.842-2.65,3.64
			c-2.157,2.781-4.512,5.41-7.025,7.874c-0.823,0.807-1.67,1.585-2.523,2.357c1.348-1.253-2.548,2.007-3.124,2.426
			c-2.868,2.086-5.864,3.996-8.971,5.706c-5.618,3.09-11.537,5.487-17.663,7.322c-13.592,3.227-27.581,3.454-41.189,0.266
			c-5.708-1.742-11.213-4.04-16.374-7.069c-2.593-1.522-4.968-3.27-7.378-5.044c-0.514-0.479-1.042-0.945-1.543-1.432
			c-1.169-1.135-2.294-2.316-3.378-3.532c-0.417-0.468-3.28-3.997-4.732-5.915c-0.254-0.426-0.515-0.849-0.761-1.28
			c-0.809-1.415-1.566-2.86-2.278-4.326c-0.522-1.076-0.949-2.222-1.441-3.323c-0.038-0.111-0.079-0.222-0.115-0.333
			c-0.406-1.266-0.743-2.548-1.11-3.824c-0.141-0.887-0.254-1.776-0.363-2.666c-0.002-0.382,0.003-0.764,0.009-1.145
			c0.016-0.374,0.029-0.74,0.07-1.047c0.029-0.213,0.082-0.541,0.146-0.917c0.199-0.789,0.444-1.771,0.575-2.207
			C1037.979,532.4,1038.255,531.61,1038.528,530.821z"/>
		<path style="fill:#BF8E4F;" d="M330.38,774.525c-8.437-12.889-20.483-24.766-35.086-30.34c-24.84-9.482-53.776-8.8-78.056,2.113
			c-36.888,16.581-54.747,59.308-52.834,98c1.228,24.833,8.425,50.084,25.062,69.152c13.945,15.983,33.553,25.269,54.5,27.616
			c22.564,2.527,47.212-3.883,65.578-17.262c22.042-16.057,36.625-40.178,39.893-67.333c0.099-0.674,0.174-1.318,0.218-1.915
			c0.329-3.281,0.495-6.622,0.42-9.956C350.334,819.605,344.364,795.887,330.38,774.525z M320.543,840.912
			c0.007-0.084,0.014-0.166,0.022-0.253c0.006,0.022,0.012,0.041,0.017,0.062c-0.001,0.018-0.002,0.035-0.003,0.053
			C320.567,840.821,320.554,840.867,320.543,840.912z M210.846,812.557c-0.018,0.037-0.049,0.081-0.087,0.128
			C210.793,812.641,210.827,812.597,210.846,812.557z M209.766,813.496c0.216-0.162,0.438-0.309,0.655-0.468
			C209.618,813.753,208.153,814.705,209.766,813.496z M199.498,855.014c0.032-0.02,0.322,0.441,0.636,0.961
			C199.717,855.416,199.458,855.039,199.498,855.014z M316.89,849.649c-0.148,1.075-2.031,2.842-2.649,3.64
			c-2.157,2.781-4.512,5.41-7.025,7.874c-0.824,0.808-1.672,1.588-2.528,2.361c1.359-1.262-2.543,2.003-3.12,2.422
			c-2.868,2.086-5.864,3.996-8.971,5.706c-5.618,3.09-11.537,5.487-17.663,7.322c-13.591,3.227-27.581,3.454-41.189,0.266
			c-5.708-1.742-11.213-4.04-16.374-7.069c-2.593-1.522-4.968-3.269-7.378-5.044c-0.514-0.479-1.042-0.945-1.543-1.432
			c-1.169-1.135-2.294-2.316-3.378-3.532c-0.417-0.468-3.28-3.997-4.732-5.915c-0.254-0.426-0.515-0.849-0.761-1.28
			c-0.809-1.415-1.566-2.86-2.278-4.326c-0.522-1.076-0.949-2.222-1.441-3.323c-0.038-0.111-0.079-0.222-0.115-0.333
			c-0.406-1.266-0.743-2.548-1.11-3.824c-0.14-0.887-0.254-1.776-0.363-2.666c-0.002-0.382,0.003-0.763,0.009-1.144
			c0.016-0.374,0.029-0.741,0.07-1.048c0.029-0.213,0.082-0.541,0.146-0.917c0.2-0.789,0.444-1.771,0.575-2.207
			c0.242-0.801,0.517-1.591,0.791-2.38c0.195-0.457,0.386-0.915,0.593-1.364c1.079-2.353,2.338-4.583,3.582-6.847
			c0.664-0.917,1.319-1.839,2.016-2.733c1.5-1.923,3.104-3.765,4.804-5.514c0.769-0.791,1.558-1.564,2.365-2.317
			c0.268-0.25,0.836-0.658,1.233-1.02c7.847-5.764,16.297-10.016,25.609-12.784c15.093-3.565,31.048-3.567,46.125,0.094
			c3.908,1.174,7.738,2.615,11.358,4.509c2.272,1.189,4.416,2.574,6.479,4.096c0.023,0.017,0.84,0.663,1.471,1.153
			c0.61,0.55,1.556,1.383,1.578,1.404c1.595,1.518,3.119,3.11,4.575,4.761c1.472,1.668,2.874,3.396,4.202,5.181
			c0.525,0.705,1.025,1.426,1.534,2.143c1.057,1.983,2.237,3.889,3.236,5.907c0.443,0.895,0.872,1.798,1.284,2.708
			c0.133,0.292,0.41,0.966,0.662,1.578c0.394,1.171,0.765,2.35,1.103,3.539c0.143,0.502,0.269,1.008,0.4,1.512
			c0.031,0.205,0.056,0.411,0.09,0.616c-0.067,0.883-0.108,1.925-0.119,2.793c-0.217,0.957-0.324,1.391-0.002,0.283
			c0,0.095,0,0.186,0,0.275c-0.032,0.108-0.055,0.218-0.088,0.326c-0.103,0.335-0.225,0.664-0.335,0.997
			c-0.647,1.281-1.219,2.597-1.895,3.865c-0.468,0.877-0.954,1.743-1.461,2.598C315.027,852.565,315.236,852.263,316.89,849.649z"/>
		<path style="fill:#BF8E4F;" d="M2035.406,844.599c0.26-24.993-5.71-48.712-19.694-70.074
			c-8.437-12.889-20.483-24.766-35.086-30.34c-24.84-9.482-53.776-8.8-78.056,2.113c-36.888,16.581-54.747,59.308-52.834,98
			c1.228,24.833,8.425,50.084,25.062,69.152c13.945,15.983,33.553,25.269,54.5,27.616c22.564,2.527,47.212-3.883,65.578-17.262
			c22.042-16.057,36.626-40.178,39.894-67.335c0.099-0.673,0.174-1.317,0.218-1.914
			C2035.315,851.274,2035.481,847.933,2035.406,844.599z M2005.874,840.913c0.007-0.084,0.015-0.166,0.022-0.254
			c0.006,0.022,0.011,0.041,0.017,0.062c-0.001,0.018-0.002,0.036-0.003,0.054C2005.899,840.821,2005.886,840.867,2005.874,840.913z
			 M1896.178,812.557c-0.018,0.037-0.049,0.081-0.087,0.128C1896.125,812.641,1896.158,812.597,1896.178,812.557z M1895.098,813.496
			c0.216-0.162,0.438-0.309,0.655-0.468C1894.95,813.753,1893.485,814.705,1895.098,813.496z M1884.83,855.014
			c0.032-0.02,0.322,0.441,0.636,0.961C1885.049,855.416,1884.79,855.039,1884.83,855.014z M2002.221,849.649
			c-0.148,1.075-2.031,2.842-2.649,3.64c-2.157,2.781-4.512,5.41-7.025,7.874c-0.823,0.807-1.67,1.585-2.523,2.357
			c1.348-1.253-2.548,2.007-3.124,2.426c-2.868,2.086-5.864,3.996-8.971,5.706c-5.618,3.09-11.537,5.487-17.663,7.322
			c-13.592,3.227-27.582,3.454-41.189,0.266c-5.708-1.742-11.213-4.04-16.374-7.069c-2.593-1.522-4.968-3.27-7.378-5.044
			c-0.514-0.479-1.042-0.945-1.543-1.432c-1.169-1.135-2.294-2.316-3.378-3.532c-0.417-0.468-3.28-3.997-4.732-5.915
			c-0.254-0.426-0.515-0.85-0.761-1.28c-0.809-1.415-1.566-2.86-2.278-4.326c-0.522-1.076-0.949-2.221-1.44-3.322
			c-0.038-0.111-0.079-0.222-0.115-0.334c-0.406-1.266-0.743-2.548-1.11-3.824c-0.14-0.887-0.254-1.776-0.363-2.666
			c-0.002-0.382,0.003-0.764,0.009-1.145c0.016-0.374,0.029-0.74,0.07-1.047c0.029-0.213,0.082-0.541,0.146-0.917
			c0.199-0.789,0.444-1.771,0.575-2.207c0.242-0.801,0.517-1.591,0.791-2.38c0.195-0.457,0.386-0.915,0.592-1.364
			c1.079-2.353,2.338-4.583,3.582-6.847c0.665-0.917,1.319-1.839,2.016-2.733c1.5-1.923,3.104-3.765,4.804-5.514
			c0.769-0.791,1.558-1.564,2.365-2.317c0.268-0.25,0.836-0.658,1.233-1.02c7.847-5.764,16.298-10.016,25.609-12.784
			c15.093-3.565,31.048-3.567,46.124,0.094c3.908,1.174,7.738,2.615,11.358,4.509c2.272,1.189,4.417,2.574,6.479,4.096
			c0.023,0.017,0.84,0.663,1.471,1.153c0.61,0.55,1.556,1.383,1.578,1.404c1.595,1.518,3.119,3.11,4.575,4.761
			c1.472,1.668,2.874,3.396,4.202,5.181c0.525,0.705,1.026,1.427,1.535,2.143c1.057,1.983,2.236,3.889,3.236,5.907
			c0.443,0.895,0.872,1.798,1.284,2.708c0.132,0.292,0.41,0.966,0.662,1.578c0.394,1.171,0.765,2.35,1.103,3.539
			c0.143,0.502,0.269,1.008,0.4,1.513c0.031,0.205,0.056,0.41,0.09,0.615c-0.067,0.883-0.108,1.925-0.119,2.793
			c-0.217,0.957-0.324,1.392-0.002,0.283c0,0.095,0,0.186,0,0.274c-0.032,0.108-0.055,0.218-0.089,0.326
			c-0.103,0.335-0.226,0.664-0.335,0.997c-0.647,1.281-1.219,2.596-1.895,3.865c-0.468,0.877-0.954,1.743-1.46,2.598
			C2000.358,852.565,2000.568,852.263,2002.221,849.649z"/>
	</g>
</g>
</svg>
